<svg width="48" height="48" viewBox="0 0 48 48" fill="none" xmlns="http://www.w3.org/2000/svg">
<path fill-rule="evenodd" clip-rule="evenodd" d="M24.5 0C11.521 0 1 10.521 1 23.5C1 36.479 11.521 47 24.5 47C37.479 47 48 36.479 48 23.5C48 10.521 37.479 0 24.5 0ZM24.5 2.35C12.8193 2.35 3.35 11.8193 3.35 23.5C3.35 35.1807 12.8193 44.65 24.5 44.65C36.1807 44.65 45.65 35.1807 45.65 23.5C45.65 11.8193 36.1807 2.35 24.5 2.35Z" fill="white"/>
<path d="M26.85 10.5751C26.85 9.95184 26.6024 9.35411 26.1617 8.9134C25.721 8.47269 25.1233 8.2251 24.5 8.2251C23.8768 8.2251 23.279 8.47269 22.8383 8.9134C22.3976 9.35411 22.15 9.95184 22.15 10.5751V27.0251C22.15 27.6484 22.3976 28.2461 22.8383 28.6868C23.279 29.1275 23.8768 29.3751 24.5 29.3751C25.1233 29.3751 25.721 29.1275 26.1617 28.6868C26.6024 28.2461 26.85 27.6484 26.85 27.0251V10.5751ZM24.5 34.0751C25.1233 34.0751 25.721 34.3227 26.1617 34.7634C26.6024 35.2041 26.85 35.8018 26.85 36.4251C26.85 37.0484 26.6024 37.6461 26.1617 38.0868C25.721 38.5275 25.1233 38.7751 24.5 38.7751C23.8768 38.7751 23.279 38.5275 22.8383 38.0868C22.3976 37.6461 22.15 37.0484 22.15 36.4251C22.15 35.8018 22.3976 35.2041 22.8383 34.7634C23.279 34.3227 23.8768 34.0751 24.5 34.0751Z" fill="white"/>
</svg>
