<svg id="Grupo_203" data-name="Grupo 203" xmlns="http://www.w3.org/2000/svg" xmlns:xlink="http://www.w3.org/1999/xlink" width="220" height="62.717" viewBox="0 0 220 62.717">
  <defs>
    <clipPath id="clip-path">
      <rect id="Retângulo_48" data-name="Retângulo 48" width="220" height="62.717" fill="none"/>
    </clipPath>
    <clipPath id="clip-path-3">
      <rect id="Retângulo_46" data-name="Retângulo 46" width="202.036" height="25.657" fill="none"/>
    </clipPath>
  </defs>
  <g id="Grupo_202" data-name="Grupo 202" clip-path="url(#clip-path)">
    <g id="Grupo_201" data-name="Grupo 201" transform="translate(0 0)">
      <g id="Grupo_200" data-name="Grupo 200" clip-path="url(#clip-path)">
        <path id="Caminho_69" data-name="Caminho 69" d="M199.43,46.7a11,11,0,0,1-.2,1.279c-.1.419-1.052,2.774-1.123,3.162a9.4,9.4,0,0,0-.058,1.141c-.289.127-.954.622-1.306.622s-1.2-.805-1.56-.9c0-.993.256-1.076.166-1.593a8.484,8.484,0,0,0-.62-1.723,1.425,1.425,0,0,1-.075-.8.972.972,0,0,0-.155.732c.091.549.532,1.377.592,1.739s.043.779-.094.871a7.216,7.216,0,0,1-2.809-.914,20.332,20.332,0,0,0-2.06-1.029,11.82,11.82,0,0,1,1.575-2.469,7.438,7.438,0,0,1,1.828-1.589,5.8,5.8,0,0,1,3.068-.6,11.8,11.8,0,0,1,1.912.377s.612-.508,1.081-.348c-.135.353-.285.715-.285.715l.608.355a8.712,8.712,0,0,0-.485.978m-27.325,9.069a3.286,3.286,0,0,0,.76,2.058c.006,0,.01.012.017.017a13.422,13.422,0,0,1-.37-1.5v-1a8.435,8.435,0,0,1,.626-2.036l-.008.008-.032.028a3.339,3.339,0,0,0-.637.862l-.035.074a3.21,3.21,0,0,0-.312,1.188c-.006.081-.012.161-.012.241,0,.017.006.035.006.056m16.626-5.317a.336.336,0,0,0,.125-.124,3.707,3.707,0,0,0,.236-.416c0-.263-.555-.236-.672-.33s-.171-.232-.355-.313l-.008.028a1.729,1.729,0,0,0-.006.176,2.886,2.886,0,0,1,.048.518,2.471,2.471,0,0,1-.079.663,2.659,2.659,0,0,1,.3.134,1.5,1.5,0,0,1,.41-.337m-.063-2.02-2.158-2.422-1.4,1.168.053.171a3.061,3.061,0,0,0,.167.349,3.228,3.228,0,0,0,.235.35,3.464,3.464,0,0,0,.314.356c.017.017.035.031.05.046a3.179,3.179,0,0,0,1.058.659,2.242,2.242,0,0,0,.718.139l.963-.815Zm-1.049-4.008v-.639a.262.262,0,0,0-.065-.206,1.044,1.044,0,0,1-.228-.152.873.873,0,0,1-.068-.061.7.7,0,0,1-.442-.05.672.672,0,0,1-.214-.117.372.372,0,0,1-.127-.261q-.108,0-.208-.017v.415c0,.017.008.036.012.051a.942.942,0,0,1,.035.247.963.963,0,0,1-.181.561,1.012,1.012,0,0,1-.808.425,1.412,1.412,0,0,0,.006.364c.015.11.129.411.177.574a3.105,3.105,0,0,1,.173.907L186,46.2c-.069-.256-.144-.522-.216-.785-.05-.181-.1-.358-.145-.533a1.31,1.31,0,0,0,.864-.6,3.879,3.879,0,0,0,.555.147h.561Zm.8-.822c.087-.086.068-.3-.1-.653a1.621,1.621,0,0,0-.2-.213c-.127.063-.18.067-.223.089a1.341,1.341,0,0,1-.113.162c-.029.034-.1.021-.131.046a.582.582,0,0,1-.213.262,1.352,1.352,0,0,0,.422.266c.106.042.465.122.553.042m.415-1.461a3,3,0,0,0,.952-.867,1.147,1.147,0,0,1-.2-.089,2.042,2.042,0,0,1-.648-.614,3.621,3.621,0,0,1-1.044,1.4.737.737,0,0,1,.053.137.246.246,0,0,1,.01.044,1.022,1.022,0,0,1,.006.364,3.592,3.592,0,0,0,.874-.377m1.075-1.073.008,0a.051.051,0,0,0,.016-.043.929.929,0,0,0-.33-.512,1.982,1.982,0,0,0-.3-.239.365.365,0,0,0-.259-.081.1.1,0,0,0-.017.01.1.1,0,0,0-.01.024.121.121,0,0,0,.006.085,1.219,1.219,0,0,0,.32.451c.237.228.485.366.564.307m-2.259.94c0-.006-.546.043-.546.043s-.266.187-.3.35a2.531,2.531,0,0,0,0,.337l.852.017a.715.715,0,0,0-.006-.746m-.6,1.165c.447.033.423-.226.423-.226l-.772-.012s-.1.211.349.238m-1.12-.913a.84.84,0,0,0-.243-.183c-.1.087-.224.21-.345.3-.006,0-.006.009-.013.009a.644.644,0,0,1-.143.1.7.7,0,0,1-.181-.31.322.322,0,0,1-.015-.084.2.2,0,0,1,.113-.2,2.113,2.113,0,0,0,.268-.122.358.358,0,0,1,.086-.175,1.274,1.274,0,0,0-.15-.266s-.119-.072-.232-.137a2.141,2.141,0,0,1-.258-.158c0,.147.013.236.012.343v.036c0,.061,0,.124.008.185,0,.114.006.228.006.342h-.2a.913.913,0,0,0,0-.114c0-.063,0-.122-.006-.187s-.008-.13-.01-.2c-.014-.257-.036-.5-.058-.736a.41.41,0,0,0-.083-.019l-.15-.022h-.027c-.04,0-.077,0-.115,0-.01.028.077.539.1.63.01.049.094.586.1.616v.023H184.2l-.005.008c-.039-.236-.083-.463-.137-.683-.049-.2-.106-.4-.165-.584a2.119,2.119,0,0,0-.525.135c-.006,0-.012,0-.015.009a1.547,1.547,0,0,0-.325.191l-.048.037a2.776,2.776,0,0,0-.193.224c-.091.124-.165.24-.218.317-.032.046-.032.11-.069.18a1,1,0,0,0-.032.113,1.206,1.206,0,0,0-.017.124v.006a.148.148,0,0,1,.031.012c.063.017.123.032.184.043a2.343,2.343,0,0,0,.482.05c.015,0,.031,0,.044,0a2.212,2.212,0,0,0,.231-.011h.006v.011a1.431,1.431,0,0,0,.365.644,1.522,1.522,0,0,0,.481.347.74.74,0,0,0,.128.046c.025.009.049.017.076.025a.9.9,0,0,0-.006.121c0,.061,0,.123,0,.177l.154.018c0-.053.006-.108.008-.158a.3.3,0,0,1,0-.067v-.1c0-.064,0-.129.006-.2v-.11c0-.069,0-.134,0-.2V42.64c0-.024.006-.048.006-.069V42.5h.193v.173c.014.017.029.032.043.05a0,0,0,0,1,0,0c.072.076.143.161.213.239.02.025.043.05.062.072a.035.035,0,0,1,.013.014.331.331,0,0,1,.023.028c.052.061.1.124.15.187a1.075,1.075,0,0,0,.166-.124.827.827,0,0,0,.123-.136.79.79,0,0,0,.049-.073,1.145,1.145,0,0,0,.056-.1c.009-.026.022-.05.032-.074a.145.145,0,0,0,.016-.036,1.339,1.339,0,0,1,.062-.147.342.342,0,0,1,.063-.106.356.356,0,0,1,.094-.082.342.342,0,0,0-.08-.128m-2.65,6.827c-.039-.04-.076-.081-.113-.121s-.05-.057-.074-.082c0-.006-.01-.013-.013-.018l-.712.594,2.191,2.445.086-.072,1.294-1.093a5.383,5.383,0,0,1-1.212-.513,6.345,6.345,0,0,1-1.269-.96.19.19,0,0,1-.024-.029c-.032-.028-.058-.055-.086-.085a.853.853,0,0,1-.065-.065m-1.557.889-.01.008.648.521,1.588,1.285.121-.142-1.623-1.821-.046-.048s-.011,0-.007-.013l-.176-.2Zm-.062.872.023.006,1.424.545.113.043L181.913,50.4l-.061-.046Zm-9.912,9.575c-.056-.24-.113-.5-.171-.693l-.44-1.531-.618-2.149v0a3.166,3.166,0,0,1,3.034-4.04,3.28,3.28,0,0,1,.454.033,2.975,2.975,0,0,0,.3-.047.8.8,0,0,0,.144-.043c.036-.012.074-.024.107-.039.063-.024.132-.054.206-.087.117-.054.239-.106.356-.154a6.84,6.84,0,0,1,1.783-.517,7.392,7.392,0,0,1,1.041-.073,7.271,7.271,0,0,1,1.256.11,6.889,6.889,0,0,1,1.321.372,3.194,3.194,0,0,0,.5.133c.274,0,.3-.289.637-.289a1.963,1.963,0,0,1,.46.166l-.048.069a11.719,11.719,0,0,0-1.38,3.279.394.394,0,0,0-.017.061c-.014.054-.028.113-.042.17,0,0,4.512,1.818,4.524,1.826.032-.078.819-1.977.819-1.977s.83.577,1.263.833a8.383,8.383,0,0,0,.007,1.038c.076,1.346.317,3.342.392,3.961.065.078.113.153.218.153s1.274-.123,1.594-.555l-.2-2.959-.146-2.169-1.545-3.683-.24-.572-.455,1.093L185,56.625l-4.033-1.6c0-.012.006-.022.006-.035a.01.01,0,0,1,.006-.011.184.184,0,0,1,.012-.05,11.566,11.566,0,0,1,1.468-3.425c.018-.051.032-.078.032-.082,0-.09,0-.073-.021-.094l-1.053-.4.277-.707-.267-.214.072-.061.262-.217.407-.338.495-.413.219-.183.081-.065-.1-.136s-.16-.213-.233-.325a5.4,5.4,0,0,1-.433-.771c-.077-.17-.143-.337-.2-.5a.817.817,0,0,1-.057-.191,4.419,4.419,0,0,1-.134-.651,2.95,2.95,0,0,1-.028-.379v-.051a1.359,1.359,0,0,1,.2-.685.952.952,0,0,1,.144-.195c.01-.008.019-.017.028-.024a1.392,1.392,0,0,1,.135-.13,1.377,1.377,0,0,1,.309-.193,1.1,1.1,0,0,1,.225-.1,0,0,0,0,0,0,0c.006-.061.006-.126.011-.207.046,0,.091.013.133.02a1.979,1.979,0,0,1,.354.089.087.087,0,0,1,.025.009c-.035-.232-.308-.277-.4-.4a.142.142,0,0,1-.035-.091.162.162,0,0,1,.025-.084.248.248,0,0,0,.062-.143.138.138,0,0,0-.018-.071.133.133,0,0,0-.046-.055l-.006-.006a.38.38,0,0,0-.048-.028c-.021-.017-.042-.032-.061-.045s-.053-.051-.077-.076a1.734,1.734,0,0,1-.458-.844c-.006-.024-.007-.049-.014-.078s-.008-.065-.011-.1a1.643,1.643,0,0,1,.006-.323c.006-.031.01-.065.017-.1a1.593,1.593,0,0,1,.533-.9,2.231,2.231,0,0,1,.24-.175.055.055,0,0,0,.017-.014,1.627,1.627,0,0,1,.315-.148.384.384,0,0,1,.057-.018.121.121,0,0,1,.038-.009,2.094,2.094,0,0,1,.312-.074,2.146,2.146,0,0,1,.28-.024c.061,0,.125,0,.183,0,.026,0,.053.006.076.008s.042,0,.061.006l.151,0c.054,0,.115,0,.181,0,.017.022.031.043.046.065a.2.2,0,0,0,.016.024c.051.09.093.173.121.228.006.009.007.013.013.017a.284.284,0,0,0,.049.061c.161.148.428.191.488.324s.286.592.286.592.48.541.48.566c0,.1,0,.149.065.223a2.869,2.869,0,0,0,.286-.1,2.211,2.211,0,0,1,.025-.225c.008-.019.343-.458.52-.444.044,0,.638-.048.64-.048a2.885,2.885,0,0,0,1.034-1.661v-.016a.113.113,0,0,0,.008-.032.162.162,0,0,1,.044-.069.267.267,0,0,1,.243-.045,1,1,0,0,1,.259.1,2.024,2.024,0,0,1,.4.3c.039.039.072.074.106.112a1.7,1.7,0,0,1,.2.273.524.524,0,0,1,.094.451l-.015.021a3.419,3.419,0,0,1-1.793,1.4.359.359,0,0,0-.059.032,1.187,1.187,0,0,1,.314.513h.785V45.43c0,.035-.006.065-.007.1s-.009.069-.017.1-.008.041-.014.063a1.141,1.141,0,0,1-.123.283c-.013.019-.026.035-.038.055a1.085,1.085,0,0,1-.715.431c-.051.009-.106.013-.16.017h-1.091l1.769,1.989s-.526.431-.707.6a1.935,1.935,0,0,0,.273.315c.121.072.871.136.813.492a.666.666,0,0,1-.029.122,2.7,2.7,0,0,1-.311.491c-.122.158-.378.173-.463.436a.719.719,0,0,1,.279.357,10.066,10.066,0,0,0,1.132-1.61c.908.23,3.1,1.45,3.673,1.629a8.717,8.717,0,0,0,1.246.239,1.783,1.783,0,0,0-.116.421c.006.053.179.1.379.224a1.358,1.358,0,0,1,.289.239,3.34,3.34,0,0,0,.212,1.479,4.1,4.1,0,0,1,.173.494c.017.053.029.106.044.163.028.124.052.252.073.384.024.166.042.336.05.507,0,.045,0,.089,0,.134v.191a1.024,1.024,0,0,1,0,.12,5.461,5.461,0,0,1-.065.629c-.01.045-.018.089-.029.139s-.025.129-.042.189a4.325,4.325,0,0,1-.222.674.453.453,0,0,0-.031.069.416.416,0,0,0-.016.041.1.1,0,0,0-.01.02c-.022,0-.043-.013-.066-.02a2.063,2.063,0,0,1-.393-.18,2.693,2.693,0,0,1-.236-.164,1.963,1.963,0,0,1-.222-.206,1.973,1.973,0,0,0,.57.718c.042.031.086.066.132.1a.631.631,0,0,0,.1.04s.6.191.719.216a15.15,15.15,0,0,1,1.909.429c.1.035.292-.2.858-.153a1.126,1.126,0,0,1,.988.981c-.013.378-.173.47-.227.688-.069.279-.5,2.668-.551,3.086-.032.268-.039.644-.039.648,0,.039.106.488.115.64,0,.031,0,.05,0,.081a1.178,1.178,0,0,1-.017.2,1.055,1.055,0,0,1-.415.721.446.446,0,0,1-.014.043c-.032.116-.072.232-.112.348a4.408,4.408,0,0,1-.983,1.563l-.012-.02-.867-1.66-.01-.018a3.852,3.852,0,0,1,.7-.937,1.38,1.38,0,0,1,.113-.112c.087-.081.179-.159.27-.235,0-.025-.006-.052-.006-.076a1.171,1.171,0,0,1,.365-.846,1.41,1.41,0,0,1,.106-.094c0-.067.129-2.569.026-3.492a2.575,2.575,0,0,1-.981-.366c-.085-.063-2.84.2-2.924.208s-.314-.1-.474-.1-.418.038-.515.038a.868.868,0,0,1-.507-.165.815.815,0,0,1-.31-.462.537.537,0,0,1-.023-.128v-.095a.87.87,0,0,1,.008-.089c.006-.028.01-.058.017-.09a.84.84,0,0,1,.09-.211,2.606,2.606,0,0,1-.442-.175,3.087,3.087,0,0,1-.385-.232,2.817,2.817,0,0,1-.75-.789,2.678,2.678,0,0,1-.179-.33,2.769,2.769,0,0,0,1.212,1.689c-.009.057-.014.116-.018.176a1.293,1.293,0,0,0,.03.328,1.325,1.325,0,0,0,.32.62,1.392,1.392,0,0,0,.7.418c-.22.811-.7,2.2-.7,2.3a11.44,11.44,0,0,1-.766,1.817,12.06,12.06,0,0,1-.265,1.8,2.708,2.708,0,0,0-.033.392c0,.1-.056.745-.093,1.777,0,.088-.034.1-.034.206a.463.463,0,0,0,.084.24s.008.01.013.016c.035.05.072.1.109.145s.1.132.141.2a4.541,4.541,0,0,1,.288.5c.043.086.083.172.12.257a.626.626,0,0,1,.054.116,4.71,4.71,0,0,1,.3,1.161h-2.036a2.533,2.533,0,0,0,.043-.358,2.727,2.727,0,0,0-.306-1.338,1.964,1.964,0,0,0-.329-.576,5.275,5.275,0,0,1,.163-.881,5.512,5.512,0,0,1,.466-.97s.128-2.455.128-2.556-.174-.989-.247-1.441a4.716,4.716,0,0,0-.4-1.368c-.046-.09.219-.34.3-.491l-.05-.048a.2.2,0,0,0-.036,0c-.106.094-2.072.685-2.072.685a4.563,4.563,0,0,0-.609-.666,24.5,24.5,0,0,1-2.578-.328,22.712,22.712,0,0,1-3.595-.96c-.2-.072-.393-.15-.58-.223a.109.109,0,0,0-.02.03v.1a3.2,3.2,0,0,1-.029.4,4.546,4.546,0,0,1-.406,1.479,3.03,3.03,0,0,1-.341.563l-.024.049a2.425,2.425,0,0,1,.2.574,2.877,2.877,0,0,1,.058.381,3.4,3.4,0,0,1,0,.474,28.523,28.523,0,0,1,2.3,3.2c0,.009.009.013.015.024a1.019,1.019,0,0,1,.483.911,1.374,1.374,0,0,1-.046.335,1.062,1.062,0,0,1-.165.34c.031.118.054.232.074.354a3.931,3.931,0,0,1,.046.781v.024a3.781,3.781,0,0,1-.228,1.135,1.748,1.748,0,0,1-.108.21l-1.552-1.264-.038-.029a4.485,4.485,0,0,1,.248-.543,5.972,5.972,0,0,1,.329-.537,1.143,1.143,0,0,1-.329-.68,1.265,1.265,0,0,1-.006-.136c0-.038,0-.083.006-.124a1.462,1.462,0,0,1,.25-.762c-.19-.332-.645-.983-.789-1.166a8.112,8.112,0,0,0-.9-.956,2.934,2.934,0,0,0-.695-.244c.038,0-.018,0,0,0-.116-.013-.477-.072-.477-.072l-.546-.095-.035,0,.136-.428c0-.007,0-.016,0-.028a1.974,1.974,0,0,0,0-.477,1.384,1.384,0,0,0-.08-.329c-.014-.036-.031-.069-.046-.1a1.232,1.232,0,0,0-.071-.12.178.178,0,0,1-.022-.028c-.193-.254-.634-.819-.709-.907.016-.016.03-.037.043-.051l.022-.026a6,6,0,0,0,.743-1.182,6.263,6.263,0,0,0,.259-.635,6.082,6.082,0,0,0,.224-.836c.028-.132.05-.264.072-.4a.1.1,0,0,1,0-.037c.091-.061.181-.128.266-.2a3.459,3.459,0,0,0,.642-.671,3.332,3.332,0,0,0,.3-.494c.019-.037.036-.073.052-.11l-.064.1a3.571,3.571,0,0,1-1.123,1.025l-.046.024a1.23,1.23,0,0,1-.116.063,2.553,2.553,0,0,1-.272.124c-.017.128-.041.253-.066.374-.039.181-.086.354-.138.527-.046.15-.1.3-.156.443a5.727,5.727,0,0,1-.321.694,5.567,5.567,0,0,1-.469.732c-.046.058-.085.113-.128.162a5.316,5.316,0,0,1-1.2,1.091,4.681,4.681,0,0,1-.77.407c-.079.032-.154.065-.232.089a2.152,2.152,0,0,1-.63.812,1.943,1.943,0,0,0-.39.355,3.656,3.656,0,0,0-.422.989,15.3,15.3,0,0,0-.37,1.729c0,.1-.042.516-.042.618s.3,1.092.3,1.2a.036.036,0,0,0,.01.028,3.2,3.2,0,0,1,1.019,1.3,3.339,3.339,0,0,1,.262.927h-1.731a4.215,4.215,0,0,0-.21-.814,4.126,4.126,0,0,0-.705-1.228,2.794,2.794,0,0,0-.21-.23.347.347,0,0,1-.044-.165.07.07,0,0,1,0-.032,3.876,3.876,0,0,1,.272-1.038,1.051,1.051,0,0,0,.11-.325c0-.1.173-2.144.161-2.218a7.91,7.91,0,0,0-.669-1.5,2.871,2.871,0,0,1,.329-.362,1.551,1.551,0,0,0,.552-.8c.018-.09.094-.1.094-.2a.164.164,0,0,0-.021-.1,2.26,2.26,0,0,1-1.356.447,2.087,2.087,0,0,0,.722-2.037c-.006-.033-.012-.065-.02-.095" transform="translate(-36.159 -8.48)" fill="#fff"/>
        <path id="Caminho_70" data-name="Caminho 70" d="M22.8,72.476V47.613H35.51v4.2H27.443V57.53h6.151v4.2H27.443v6.543h8.4v4.2Z" transform="translate(-4.839 -10.104)" fill="#fff"/>
        <path id="Caminho_71" data-name="Caminho 71" d="M51.56,54.442a6.305,6.305,0,0,0-1.378-2.549,2.766,2.766,0,0,0-2.018-.792,2.434,2.434,0,0,0-1.9.723,2.867,2.867,0,0,0-.655,2,2.156,2.156,0,0,0,.774,1.636,10.757,10.757,0,0,0,1.916,1.36q1.143.655,2.488,1.4a14.2,14.2,0,0,1,2.487,1.739,8.963,8.963,0,0,1,1.917,2.376,6.658,6.658,0,0,1,.773,3.306,7.866,7.866,0,0,1-.521,2.927A6.153,6.153,0,0,1,53.929,70.8a6.7,6.7,0,0,1-2.437,1.429,9.964,9.964,0,0,1-3.261.5,7.645,7.645,0,0,1-4.925-1.653A9.649,9.649,0,0,1,40.3,65.737l4.572-1a7.038,7.038,0,0,0,.588,1.911,4.486,4.486,0,0,0,.891,1.257,3.122,3.122,0,0,0,1.059.689,3.051,3.051,0,0,0,1.059.206,2.978,2.978,0,0,0,2.084-4.976,9.4,9.4,0,0,0-1.916-1.567q-1.144-.723-2.488-1.429a15.474,15.474,0,0,1-2.487-1.619,8.691,8.691,0,0,1-1.917-2.118,5.37,5.37,0,0,1-.773-2.961,6.949,6.949,0,0,1,1.832-5.1,7.348,7.348,0,0,1,5.463-1.859,8.2,8.2,0,0,1,2.79.447,6.924,6.924,0,0,1,2.185,1.257A7.128,7.128,0,0,1,54.8,50.791a9.015,9.015,0,0,1,.924,2.411Z" transform="translate(-8.551 -10.011)" fill="#fff"/>
        <path id="Caminho_72" data-name="Caminho 72" d="M76.5,47.612v4.2H71.087V72.476H66.449V51.814H61.036v-4.2Z" transform="translate(-12.952 -10.104)" fill="#fff"/>
        <path id="Caminho_73" data-name="Caminho 73" d="M76.824,72.476l6.017-24.864h5.95l5.849,24.864H90.2l-1.177-5.235H82.606l-1.311,5.235Zm6.622-9.436h4.605L85.8,52.984h-.067Z" transform="translate(-16.303 -10.103)" fill="#fff"/>
        <path id="Caminho_74" data-name="Caminho 74" d="M100.678,47.613h6.454a12.257,12.257,0,0,1,3.53.465,6.365,6.365,0,0,1,2.622,1.5,6.85,6.85,0,0,1,1.664,2.669,12.929,12.929,0,0,1,.655,3.978v7.646a12.921,12.921,0,0,1-.655,3.978,6.835,6.835,0,0,1-1.664,2.668,6.366,6.366,0,0,1-2.622,1.5,12.284,12.284,0,0,1-3.53.465h-6.454Zm4.639,20.662h1.613a3.968,3.968,0,0,0,2.976-1.085q1.059-1.085,1.059-3.874V56.773a6.14,6.14,0,0,0-.925-3.806,3.763,3.763,0,0,0-3.109-1.153h-1.613Z" transform="translate(-21.365 -10.104)" fill="#fff"/>
        <path id="Caminho_75" data-name="Caminho 75" d="M119.538,70.853l6.017-24.864H131.5l5.849,24.864h-4.437l-1.177-5.235H125.32l-1.311,5.235ZM134.6,39.962a11.019,11.019,0,0,1-.437,1.567,5.464,5.464,0,0,1-.689,1.326,3.1,3.1,0,0,1-1.06.93,3.219,3.219,0,0,1-1.546.344,4.741,4.741,0,0,1-1.328-.19q-.655-.189-1.26-.414t-1.193-.413a3.774,3.774,0,0,0-1.16-.189,1.259,1.259,0,0,0-1.008.43,2.341,2.341,0,0,0-.5,1.016h-2.118a8.15,8.15,0,0,1,.42-1.584,4.844,4.844,0,0,1,.756-1.343,3.547,3.547,0,0,1,1.127-.93,3.322,3.322,0,0,1,1.563-.345,4.392,4.392,0,0,1,1.327.207q.656.207,1.261.43t1.142.431a2.682,2.682,0,0,0,.941.206,1.382,1.382,0,0,0,1.026-.43,2.111,2.111,0,0,0,.554-1.051ZM126.16,61.417h4.605l-2.252-10.056h-.068Z" transform="translate(-25.367 -8.48)" fill="#fff"/>
        <path id="Caminho_76" data-name="Caminho 76" d="M142.238,55.509a11.542,11.542,0,0,1,.572-3.892,6.663,6.663,0,0,1,1.579-2.565,6.026,6.026,0,0,1,2.421-1.429,10.892,10.892,0,0,1,6.185,0,6.018,6.018,0,0,1,2.42,1.429A6.665,6.665,0,0,1,157,51.617a11.564,11.564,0,0,1,.571,3.892v8.885A11.558,11.558,0,0,1,157,68.286a6.668,6.668,0,0,1-1.58,2.566A6.027,6.027,0,0,1,153,72.28a10.91,10.91,0,0,1-6.185,0,6.035,6.035,0,0,1-2.421-1.429,6.667,6.667,0,0,1-1.579-2.566,11.536,11.536,0,0,1-.572-3.892Zm4.639,9.5a3.7,3.7,0,0,0,.807,2.79,3.765,3.765,0,0,0,4.438,0,3.7,3.7,0,0,0,.807-2.79V54.889a3.7,3.7,0,0,0-.807-2.79,3.765,3.765,0,0,0-4.438,0,3.7,3.7,0,0,0-.807,2.79Z" transform="translate(-30.184 -10.011)" fill="#fff"/>
        <rect id="Retângulo_45" data-name="Retângulo 45" width="4.92" height="62.212" transform="translate(0 0.376)" fill="#fff"/>
        <g id="Grupo_199" data-name="Grupo 199" transform="translate(17.964 0)" opacity="0.6">
          <g id="Grupo_198" data-name="Grupo 198">
            <g id="Grupo_197" data-name="Grupo 197" clip-path="url(#clip-path-3)">
              <path id="Caminho_77" data-name="Caminho 77" d="M22.8.531h7.535c4.608,0,7.3,2.336,7.3,7.252,0,3.555-1.327,5.647-3.4,6.519l3.709,11.085H32.838l-3.046-10.11H27.724v10.11H22.8ZM29.949,12c1.756,0,2.733-1.186,2.733-3.9,0-2.406-.82-3.87-2.772-3.87H27.724V12Z" transform="translate(-22.803 -0.113)" fill="#fff"/>
              <path id="Caminho_78" data-name="Caminho 78" d="M44.709,19.078V6.6c0-4.288,3.358-6.554,7.769-6.554,4.3,0,7.731,2.021,7.731,6.414V18.973c0,4.5-3.436,6.658-7.77,6.658-4.607,0-7.731-2.092-7.731-6.554m10.5.07V6.354c0-1.534-1.054-2.475-2.772-2.475a2.415,2.415,0,0,0-2.733,2.545V19.148a2.5,2.5,0,0,0,2.771,2.614,2.481,2.481,0,0,0,2.734-2.614" transform="translate(-27.452 -0.01)" fill="#fff"/>
              <path id="Caminho_79" data-name="Caminho 79" d="M71.141,4.262h-5.27V.532H81.332v3.73H76.1V25.386H71.141Z" transform="translate(-31.943 -0.113)" fill="#fff"/>
              <path id="Caminho_80" data-name="Caminho 80" d="M90.266.487h6.715l5.427,24.89H97.45l-1.289-6.031H90.422l-1.249,6.031H84.6Zm5.115,15.3L93.389,5.472h-.117L91.2,15.791Z" transform="translate(-35.918 -0.103)" fill="#fff"/>
              <path id="Caminho_81" data-name="Caminho 81" d="M150.306,18.72l4.607-.139c.2,1.708.742,3.486,2.733,3.486,1.758,0,2.3-1.36,2.3-2.614,0-1.4-.976-2.58-2.576-3.974L154.6,12.9c-2.381-2.056-3.865-4.078-3.865-6.693,0-3.347,2.343-6.205,7.028-6.205,3.4,0,6.443,1.6,6.677,6.729l-4.334.139c-.233-1.952-.82-3.312-2.576-3.312A2.121,2.121,0,0,0,155.3,5.892c0,1.359,1.483,2.649,2.85,3.87L160.73,12.1c2.578,2.266,4.022,4.392,4.022,7.146,0,3.591-2.656,6.38-7.145,6.38-4.412,0-7.028-2.615-7.3-6.9" transform="translate(-49.86)" fill="#fff"/>
              <path id="Caminho_82" data-name="Caminho 82" d="M171.617.531h12.768v3.73H176.5v6.414h6.287V14.44H176.5v7.181h7.926v3.766H171.617Z" transform="translate(-54.382 -0.113)" fill="#fff"/>
              <path id="Caminho_83" data-name="Caminho 83" d="M190.2,19.323V6.285c0-3.94,3.319-6.24,7.692-6.24,4.1,0,7.419,2.057,7.419,5.682V8.376h-4.53v-2.3c0-1.43-1.171-2.3-2.812-2.3A2.485,2.485,0,0,0,195.2,6.425V19.218a2.465,2.465,0,0,0,2.771,2.615c1.914,0,2.617-.977,2.617-2.336V15.488h-3.046V12.142h7.809v7.564c0,3.73-2.849,5.927-7.379,5.927-4.49,0-7.769-2.126-7.769-6.309" transform="translate(-58.326 -0.01)" fill="#fff"/>
              <path id="Caminho_84" data-name="Caminho 84" d="M212.7,19.391V.532h5V19.181a2.505,2.505,0,0,0,2.733,2.72,2.445,2.445,0,0,0,2.656-2.685V.532h4.685v18.72c.039,4.184-3.241,6.519-7.653,6.519-4.528,0-7.418-2.022-7.418-6.38" transform="translate(-63.101 -0.113)" fill="#fff"/>
              <path id="Caminho_85" data-name="Caminho 85" d="M235.6.531h7.535c4.607,0,7.3,2.336,7.3,7.252,0,3.555-1.327,5.647-3.4,6.519l3.709,11.085h-5.114l-3.045-10.11h-2.07v10.11H235.6ZM242.743,12c1.757,0,2.734-1.186,2.734-3.9,0-2.406-.82-3.87-2.772-3.87h-2.186V12Z" transform="translate(-67.96 -0.113)" fill="#fff"/>
              <path id="Caminho_86" data-name="Caminho 86" d="M262.322.487h6.715l5.428,24.89h-4.959l-1.288-6.031h-5.74l-1.249,6.031h-4.568Zm5.114,15.3L265.446,5.472h-.117l-2.07,10.319Z" transform="translate(-72.429 -0.103)" fill="#fff"/>
              <path id="Caminho_87" data-name="Caminho 87" d="M122.309,15.154H111.916V10.875h10.393V.545H127.1l-.059,10.33h10.389v4.279H127.1V25.389h-4.794Z" transform="translate(-41.714 -0.116)" fill="#fff"/>
            </g>
          </g>
        </g>
      </g>
    </g>
  </g>
</svg>
