<svg width="165" height="27" viewBox="0 0 165 27" fill="none" xmlns="http://www.w3.org/2000/svg">
<rect x="24" y="9" width="117" height="10" fill="#9370DB" fill-opacity="0.3"/>
<rect x="24" y="12" width="117" height="4" fill="#9370DB"/>
<circle cx="13.5" cy="13.5" r="13.5" fill="#36A8C7"/>
<path d="M10.7464 19H8.77761L12.3621 8.81818H14.6391L18.2286 19H16.2599L13.5404 10.9062H13.4608L10.7464 19ZM10.811 15.0078H16.1803V16.4893H10.811V15.0078Z" fill="white"/>
<circle cx="151.5" cy="13.5" r="13.5" fill="#7F7FC1"/>
<path d="M147.404 19V8.81818H151.301C152.037 8.81818 152.649 8.93419 153.136 9.16619C153.626 9.39489 153.993 9.7081 154.235 10.1058C154.48 10.5036 154.603 10.9543 154.603 11.4581C154.603 11.8724 154.523 12.227 154.364 12.522C154.205 12.8137 153.991 13.0507 153.723 13.233C153.454 13.4152 153.154 13.5462 152.823 13.6257V13.7251C153.184 13.745 153.53 13.8561 153.862 14.0582C154.197 14.2571 154.47 14.5388 154.682 14.9034C154.894 15.268 155 15.7088 155 16.2259C155 16.7528 154.873 17.2268 154.617 17.6477C154.362 18.0653 153.978 18.3951 153.464 18.6371C152.95 18.879 152.304 19 151.525 19H147.404ZM149.248 17.4588H151.232C151.901 17.4588 152.384 17.3312 152.679 17.076C152.977 16.8175 153.126 16.486 153.126 16.0817C153.126 15.7801 153.051 15.5083 152.902 15.2663C152.753 15.0211 152.541 14.8288 152.266 14.6896C151.991 14.5471 151.663 14.4759 151.282 14.4759H149.248V17.4588ZM149.248 13.1484H151.073C151.391 13.1484 151.678 13.0904 151.933 12.9744C152.188 12.8551 152.389 12.6877 152.534 12.4723C152.684 12.2536 152.758 11.995 152.758 11.6967C152.758 11.3023 152.619 10.9775 152.34 10.7223C152.065 10.4671 151.656 10.3395 151.112 10.3395H149.248V13.1484Z" fill="white"/>
</svg>
